<mxfile host="app.diagrams.net" agent="Mozilla/5.0 (Windows NT 10.0; Win64; x64) AppleWebKit/537.36 (KHTML, like Gecko) Chrome/130.0.0.0 Safari/537.36 QuarkPC/2.6.0.313" version="26.2.14">
  <diagram name="第 1 页" id="zd6RHvnpCG602YXMuTFv">
    <mxGraphModel dx="1816" dy="1106" grid="1" gridSize="10" guides="1" tooltips="1" connect="1" arrows="1" fold="1" page="1" pageScale="1" pageWidth="827" pageHeight="1169" math="0" shadow="0">
      <root>
        <mxCell id="0" />
        <mxCell id="1" parent="0" />
        <mxCell id="ZQzBsFarwEVN76N8cBqX-27" style="edgeStyle=orthogonalEdgeStyle;rounded=0;orthogonalLoop=1;jettySize=auto;html=1;endArrow=none;endFill=1;strokeColor=#3399FF;strokeWidth=2;startFill=0;" edge="1" parent="1" source="ZQzBsFarwEVN76N8cBqX-7" target="ZQzBsFarwEVN76N8cBqX-9">
          <mxGeometry relative="1" as="geometry" />
        </mxCell>
        <mxCell id="ZQzBsFarwEVN76N8cBqX-1" style="edgeStyle=orthogonalEdgeStyle;rounded=0;orthogonalLoop=1;jettySize=auto;html=1;endArrow=none;endFill=1;strokeColor=#3399FF;strokeWidth=2;startFill=0;entryX=-0.031;entryY=0.466;entryDx=0;entryDy=0;entryPerimeter=0;" edge="1" parent="1" source="ZQzBsFarwEVN76N8cBqX-11" target="ZQzBsFarwEVN76N8cBqX-31">
          <mxGeometry relative="1" as="geometry">
            <mxPoint x="392.5" y="385" as="targetPoint" />
          </mxGeometry>
        </mxCell>
        <mxCell id="ZQzBsFarwEVN76N8cBqX-2" value="" style="rounded=0;whiteSpace=wrap;html=1;fillColor=#FFFFFF;strokeColor=#6c8ebf;" vertex="1" parent="1">
          <mxGeometry x="242.5" y="345" width="140" height="85" as="geometry" />
        </mxCell>
        <mxCell id="ZQzBsFarwEVN76N8cBqX-3" value="Discriminator" style="text;html=1;strokeColor=none;fillColor=none;align=left;verticalAlign=middle;whiteSpace=wrap;rounded=0;fontSize=14;fontColor=#FF0000;fontStyle=1" vertex="1" parent="1">
          <mxGeometry x="-10" y="250" width="120" height="30" as="geometry" />
        </mxCell>
        <mxCell id="ZQzBsFarwEVN76N8cBqX-4" value="&lt;i&gt;I&lt;sup&gt;HR&lt;/sup&gt;&lt;/i&gt;" style="shape=rectangle;whiteSpace=wrap;html=1;strokeColor=#a1c7ff;fillColor=#e1efff;fontSize=14;verticalAlign=middle;align=center;" vertex="1" parent="1">
          <mxGeometry x="-10" y="310" width="60" height="60" as="geometry" />
        </mxCell>
        <mxCell id="ZQzBsFarwEVN76N8cBqX-5" value="&lt;i&gt;I&lt;sup&gt;SR&lt;/sup&gt;&lt;/i&gt;" style="shape=rectangle;whiteSpace=wrap;html=1;strokeColor=#a1c7ff;fillColor=#FEFFE8;fontSize=14;verticalAlign=middle;align=center;" vertex="1" parent="1">
          <mxGeometry x="-10" y="390" width="60" height="60" as="geometry" />
        </mxCell>
        <mxCell id="ZQzBsFarwEVN76N8cBqX-6" value="Conv" style="rounded=0;whiteSpace=wrap;html=1;fillColor=#dae8fc;strokeColor=#6c8ebf;align=center;verticalAlign=middle;" vertex="1" parent="1">
          <mxGeometry x="110" y="355" width="50" height="60" as="geometry" />
        </mxCell>
        <mxCell id="ZQzBsFarwEVN76N8cBqX-7" value="Leaky ReLU" style="rounded=0;whiteSpace=wrap;html=1;fillColor=#fff2cc;strokeColor=#d6b656;align=center;verticalAlign=middle;" vertex="1" parent="1">
          <mxGeometry x="160" y="355" width="50" height="60" as="geometry" />
        </mxCell>
        <mxCell id="ZQzBsFarwEVN76N8cBqX-8" value="k3n64s1" style="text;html=1;strokeColor=none;fillColor=none;align=center;verticalAlign=middle;whiteSpace=wrap;rounded=0;fontSize=10;" vertex="1" parent="1">
          <mxGeometry x="84" y="450" width="100" height="20" as="geometry" />
        </mxCell>
        <mxCell id="ZQzBsFarwEVN76N8cBqX-9" value="Conv" style="rounded=0;whiteSpace=wrap;html=1;fillColor=#dae8fc;strokeColor=#6c8ebf;align=center;verticalAlign=middle;" vertex="1" parent="1">
          <mxGeometry x="270" y="355" width="40" height="60" as="geometry" />
        </mxCell>
        <mxCell id="ZQzBsFarwEVN76N8cBqX-11" value="Leaky ReLU" style="rounded=0;whiteSpace=wrap;html=1;fillColor=#fff2cc;strokeColor=#d6b656;align=center;verticalAlign=middle;" vertex="1" parent="1">
          <mxGeometry x="310" y="355" width="50" height="60" as="geometry" />
        </mxCell>
        <mxCell id="ZQzBsFarwEVN76N8cBqX-12" value="k3n64s2" style="text;html=1;strokeColor=none;fillColor=none;align=center;verticalAlign=middle;whiteSpace=wrap;rounded=0;fontSize=10;" vertex="1" parent="1">
          <mxGeometry x="204" y="450" width="120" height="20" as="geometry" />
        </mxCell>
        <mxCell id="ZQzBsFarwEVN76N8cBqX-13" value="k3n128s1" style="text;html=1;strokeColor=none;fillColor=none;align=center;verticalAlign=middle;whiteSpace=wrap;rounded=0;fontSize=10;" vertex="1" parent="1">
          <mxGeometry x="370" y="450" width="120" height="20" as="geometry" />
        </mxCell>
        <mxCell id="ZQzBsFarwEVN76N8cBqX-14" value="k3n128s2" style="text;html=1;strokeColor=none;fillColor=none;align=center;verticalAlign=middle;whiteSpace=wrap;rounded=0;fontSize=10;" vertex="1" parent="1">
          <mxGeometry x="440" y="490" width="120" height="20" as="geometry" />
        </mxCell>
        <mxCell id="ZQzBsFarwEVN76N8cBqX-15" value="k3n256s1" style="text;html=1;strokeColor=none;fillColor=none;align=center;verticalAlign=middle;whiteSpace=wrap;rounded=0;fontSize=10;" vertex="1" parent="1">
          <mxGeometry x="500" y="450" width="120" height="20" as="geometry" />
        </mxCell>
        <mxCell id="ZQzBsFarwEVN76N8cBqX-16" value="k3n256s2" style="text;html=1;strokeColor=none;fillColor=none;align=center;verticalAlign=middle;whiteSpace=wrap;rounded=0;fontSize=10;" vertex="1" parent="1">
          <mxGeometry x="570" y="490" width="120" height="20" as="geometry" />
        </mxCell>
        <mxCell id="ZQzBsFarwEVN76N8cBqX-17" value="k3n512s1" style="text;html=1;strokeColor=none;fillColor=none;align=center;verticalAlign=middle;whiteSpace=wrap;rounded=0;fontSize=10;" vertex="1" parent="1">
          <mxGeometry x="617" y="450" width="120" height="20" as="geometry" />
        </mxCell>
        <mxCell id="ZQzBsFarwEVN76N8cBqX-18" value="k3n512s2" style="text;html=1;strokeColor=none;fillColor=none;align=center;verticalAlign=middle;whiteSpace=wrap;rounded=0;fontSize=10;" vertex="1" parent="1">
          <mxGeometry x="690" y="490" width="120" height="20" as="geometry" />
        </mxCell>
        <mxCell id="ZQzBsFarwEVN76N8cBqX-19" value="Dense (1024)" style="rounded=0;whiteSpace=wrap;html=1;fillColor=#FFFF66;strokeColor=#d6b656;align=center;verticalAlign=middle;" vertex="1" parent="1">
          <mxGeometry x="790" y="355" width="50" height="60" as="geometry" />
        </mxCell>
        <mxCell id="ZQzBsFarwEVN76N8cBqX-20" value="Leaky ReLU" style="rounded=0;whiteSpace=wrap;html=1;fillColor=#fff2cc;strokeColor=#d6b656;align=center;verticalAlign=middle;" vertex="1" parent="1">
          <mxGeometry x="840" y="355.0000000000001" width="50" height="60" as="geometry" />
        </mxCell>
        <mxCell id="ZQzBsFarwEVN76N8cBqX-21" value="Dense (1)" style="rounded=0;whiteSpace=wrap;html=1;fillColor=#FFFF66;strokeColor=#d6b656;align=center;verticalAlign=middle;" vertex="1" parent="1">
          <mxGeometry x="890" y="355.0000000000001" width="50" height="60" as="geometry" />
        </mxCell>
        <mxCell id="ZQzBsFarwEVN76N8cBqX-23" value="Real or Fake" style="shape=rectangle;whiteSpace=wrap;html=1;strokeColor=#a1c7ff;fillColor=#FFFFFF;fontSize=12;verticalAlign=middle;align=center;" vertex="1" parent="1">
          <mxGeometry x="980" y="355.0000000000001" width="70" height="60" as="geometry" />
        </mxCell>
        <mxCell id="ZQzBsFarwEVN76N8cBqX-24" style="edgeStyle=orthogonalEdgeStyle;rounded=0;orthogonalLoop=1;jettySize=auto;html=1;endArrow=none;endFill=0;strokeColor=#3399FF;strokeWidth=2;" edge="1" parent="1" source="ZQzBsFarwEVN76N8cBqX-4" target="ZQzBsFarwEVN76N8cBqX-6">
          <mxGeometry relative="1" as="geometry">
            <mxPoint x="70" y="340" as="sourcePoint" />
            <mxPoint x="90" y="385" as="targetPoint" />
            <Array as="points">
              <mxPoint x="70" y="340" />
              <mxPoint x="70" y="385" />
            </Array>
          </mxGeometry>
        </mxCell>
        <mxCell id="ZQzBsFarwEVN76N8cBqX-25" style="edgeStyle=orthogonalEdgeStyle;rounded=0;orthogonalLoop=1;jettySize=auto;html=1;endArrow=none;endFill=0;strokeColor=#3399FF;strokeWidth=2;" edge="1" parent="1" source="ZQzBsFarwEVN76N8cBqX-5" target="ZQzBsFarwEVN76N8cBqX-6">
          <mxGeometry relative="1" as="geometry">
            <mxPoint x="70" y="420" as="sourcePoint" />
            <mxPoint x="90" y="385" as="targetPoint" />
            <Array as="points">
              <mxPoint x="70" y="420" />
              <mxPoint x="70" y="385" />
            </Array>
          </mxGeometry>
        </mxCell>
        <mxCell id="ZQzBsFarwEVN76N8cBqX-26" style="edgeStyle=orthogonalEdgeStyle;rounded=0;orthogonalLoop=1;jettySize=auto;html=1;endArrow=none;endFill=1;strokeColor=#3399FF;strokeWidth=2;startFill=0;" edge="1" parent="1" target="ZQzBsFarwEVN76N8cBqX-6">
          <mxGeometry relative="1" as="geometry">
            <mxPoint x="70" y="385" as="sourcePoint" />
          </mxGeometry>
        </mxCell>
        <mxCell id="ZQzBsFarwEVN76N8cBqX-28" style="edgeStyle=orthogonalEdgeStyle;rounded=0;orthogonalLoop=1;jettySize=auto;html=1;endArrow=none;endFill=1;strokeColor=#3399FF;strokeWidth=2;startFill=0;" edge="1" parent="1">
          <mxGeometry relative="1" as="geometry">
            <mxPoint x="469" y="384.52" as="sourcePoint" />
            <mxPoint x="490" y="384.52" as="targetPoint" />
          </mxGeometry>
        </mxCell>
        <mxCell id="ZQzBsFarwEVN76N8cBqX-29" style="edgeStyle=orthogonalEdgeStyle;rounded=0;orthogonalLoop=1;jettySize=auto;html=1;endArrow=classic;endFill=1;strokeColor=#3399FF;strokeWidth=2;" edge="1" parent="1" target="ZQzBsFarwEVN76N8cBqX-23">
          <mxGeometry relative="1" as="geometry">
            <mxPoint x="940" y="385" as="sourcePoint" />
          </mxGeometry>
        </mxCell>
        <mxCell id="ZQzBsFarwEVN76N8cBqX-30" value="" style="group" vertex="1" connectable="0" parent="1">
          <mxGeometry x="430" y="345" width="40" height="85" as="geometry" />
        </mxCell>
        <mxCell id="ZQzBsFarwEVN76N8cBqX-31" value="" style="rounded=0;whiteSpace=wrap;html=1;fillColor=#FFFFFF;strokeColor=#6c8ebf;" vertex="1" parent="ZQzBsFarwEVN76N8cBqX-30">
          <mxGeometry width="40" height="85" as="geometry" />
        </mxCell>
        <mxCell id="ZQzBsFarwEVN76N8cBqX-33" value="" style="rounded=0;whiteSpace=wrap;html=1;fillColor=#fff2cc;strokeColor=#d6b656;" vertex="1" parent="ZQzBsFarwEVN76N8cBqX-30">
          <mxGeometry x="24" y="7.083333333333333" width="8" height="70.83333333333333" as="geometry" />
        </mxCell>
        <mxCell id="ZQzBsFarwEVN76N8cBqX-34" value="" style="rounded=0;whiteSpace=wrap;html=1;fillColor=#dae8fc;strokeColor=#6c8ebf;" vertex="1" parent="ZQzBsFarwEVN76N8cBqX-30">
          <mxGeometry x="8" y="7.083333333333333" width="8" height="70.83333333333333" as="geometry" />
        </mxCell>
        <mxCell id="ZQzBsFarwEVN76N8cBqX-35" style="edgeStyle=orthogonalEdgeStyle;rounded=0;orthogonalLoop=1;jettySize=auto;html=1;endArrow=none;endFill=1;strokeColor=#3399FF;strokeWidth=2;startFill=0;" edge="1" parent="1">
          <mxGeometry relative="1" as="geometry">
            <mxPoint x="529" y="384.52" as="sourcePoint" />
            <mxPoint x="550" y="384.52" as="targetPoint" />
          </mxGeometry>
        </mxCell>
        <mxCell id="ZQzBsFarwEVN76N8cBqX-36" value="" style="group" vertex="1" connectable="0" parent="1">
          <mxGeometry x="490" y="345" width="40" height="85" as="geometry" />
        </mxCell>
        <mxCell id="ZQzBsFarwEVN76N8cBqX-37" value="" style="rounded=0;whiteSpace=wrap;html=1;fillColor=#FFFFFF;strokeColor=#6c8ebf;" vertex="1" parent="ZQzBsFarwEVN76N8cBqX-36">
          <mxGeometry width="40" height="85" as="geometry" />
        </mxCell>
        <mxCell id="ZQzBsFarwEVN76N8cBqX-39" value="" style="rounded=0;whiteSpace=wrap;html=1;fillColor=#fff2cc;strokeColor=#d6b656;" vertex="1" parent="ZQzBsFarwEVN76N8cBqX-36">
          <mxGeometry x="24" y="7.083333333333333" width="8" height="70.83333333333333" as="geometry" />
        </mxCell>
        <mxCell id="ZQzBsFarwEVN76N8cBqX-40" value="" style="rounded=0;whiteSpace=wrap;html=1;fillColor=#dae8fc;strokeColor=#6c8ebf;" vertex="1" parent="ZQzBsFarwEVN76N8cBqX-36">
          <mxGeometry x="8" y="7.083333333333333" width="8" height="70.83333333333333" as="geometry" />
        </mxCell>
        <mxCell id="ZQzBsFarwEVN76N8cBqX-41" style="edgeStyle=orthogonalEdgeStyle;rounded=0;orthogonalLoop=1;jettySize=auto;html=1;endArrow=none;endFill=1;strokeColor=#3399FF;strokeWidth=2;startFill=0;" edge="1" parent="1">
          <mxGeometry relative="1" as="geometry">
            <mxPoint x="589" y="384.52" as="sourcePoint" />
            <mxPoint x="610" y="384.52" as="targetPoint" />
          </mxGeometry>
        </mxCell>
        <mxCell id="ZQzBsFarwEVN76N8cBqX-42" value="" style="group" vertex="1" connectable="0" parent="1">
          <mxGeometry x="550" y="345" width="40" height="85" as="geometry" />
        </mxCell>
        <mxCell id="ZQzBsFarwEVN76N8cBqX-43" value="" style="rounded=0;whiteSpace=wrap;html=1;fillColor=#FFFFFF;strokeColor=#6c8ebf;" vertex="1" parent="ZQzBsFarwEVN76N8cBqX-42">
          <mxGeometry width="40" height="85" as="geometry" />
        </mxCell>
        <mxCell id="ZQzBsFarwEVN76N8cBqX-45" value="" style="rounded=0;whiteSpace=wrap;html=1;fillColor=#fff2cc;strokeColor=#d6b656;" vertex="1" parent="ZQzBsFarwEVN76N8cBqX-42">
          <mxGeometry x="24" y="7.083333333333333" width="8" height="70.83333333333333" as="geometry" />
        </mxCell>
        <mxCell id="ZQzBsFarwEVN76N8cBqX-46" value="" style="rounded=0;whiteSpace=wrap;html=1;fillColor=#dae8fc;strokeColor=#6c8ebf;" vertex="1" parent="ZQzBsFarwEVN76N8cBqX-42">
          <mxGeometry x="8" y="7.083333333333333" width="8" height="70.83333333333333" as="geometry" />
        </mxCell>
        <mxCell id="ZQzBsFarwEVN76N8cBqX-47" style="edgeStyle=orthogonalEdgeStyle;rounded=0;orthogonalLoop=1;jettySize=auto;html=1;endArrow=none;endFill=1;strokeColor=#3399FF;strokeWidth=2;startFill=0;" edge="1" parent="1">
          <mxGeometry relative="1" as="geometry">
            <mxPoint x="649" y="384.52" as="sourcePoint" />
            <mxPoint x="670" y="384.52" as="targetPoint" />
          </mxGeometry>
        </mxCell>
        <mxCell id="ZQzBsFarwEVN76N8cBqX-48" value="" style="group" vertex="1" connectable="0" parent="1">
          <mxGeometry x="610" y="345" width="40" height="85" as="geometry" />
        </mxCell>
        <mxCell id="ZQzBsFarwEVN76N8cBqX-49" value="" style="rounded=0;whiteSpace=wrap;html=1;fillColor=#FFFFFF;strokeColor=#6c8ebf;" vertex="1" parent="ZQzBsFarwEVN76N8cBqX-48">
          <mxGeometry width="40" height="85" as="geometry" />
        </mxCell>
        <mxCell id="ZQzBsFarwEVN76N8cBqX-51" value="" style="rounded=0;whiteSpace=wrap;html=1;fillColor=#fff2cc;strokeColor=#d6b656;" vertex="1" parent="ZQzBsFarwEVN76N8cBqX-48">
          <mxGeometry x="24" y="7.083333333333333" width="8" height="70.83333333333333" as="geometry" />
        </mxCell>
        <mxCell id="ZQzBsFarwEVN76N8cBqX-52" value="" style="rounded=0;whiteSpace=wrap;html=1;fillColor=#dae8fc;strokeColor=#6c8ebf;" vertex="1" parent="ZQzBsFarwEVN76N8cBqX-48">
          <mxGeometry x="8" y="7.083333333333333" width="8" height="70.83333333333333" as="geometry" />
        </mxCell>
        <mxCell id="ZQzBsFarwEVN76N8cBqX-53" style="edgeStyle=orthogonalEdgeStyle;rounded=0;orthogonalLoop=1;jettySize=auto;html=1;endArrow=none;endFill=1;strokeColor=#3399FF;strokeWidth=2;startFill=0;" edge="1" parent="1">
          <mxGeometry relative="1" as="geometry">
            <mxPoint x="709" y="384.52" as="sourcePoint" />
            <mxPoint x="730" y="384.52" as="targetPoint" />
          </mxGeometry>
        </mxCell>
        <mxCell id="ZQzBsFarwEVN76N8cBqX-54" value="" style="group" vertex="1" connectable="0" parent="1">
          <mxGeometry x="670" y="345" width="40" height="85" as="geometry" />
        </mxCell>
        <mxCell id="ZQzBsFarwEVN76N8cBqX-55" value="" style="rounded=0;whiteSpace=wrap;html=1;fillColor=#FFFFFF;strokeColor=#6c8ebf;" vertex="1" parent="ZQzBsFarwEVN76N8cBqX-54">
          <mxGeometry width="40" height="85" as="geometry" />
        </mxCell>
        <mxCell id="ZQzBsFarwEVN76N8cBqX-57" value="" style="rounded=0;whiteSpace=wrap;html=1;fillColor=#fff2cc;strokeColor=#d6b656;" vertex="1" parent="ZQzBsFarwEVN76N8cBqX-54">
          <mxGeometry x="24" y="7.083333333333333" width="8" height="70.83333333333333" as="geometry" />
        </mxCell>
        <mxCell id="ZQzBsFarwEVN76N8cBqX-58" value="" style="rounded=0;whiteSpace=wrap;html=1;fillColor=#dae8fc;strokeColor=#6c8ebf;" vertex="1" parent="ZQzBsFarwEVN76N8cBqX-54">
          <mxGeometry x="8" y="7.083333333333333" width="8" height="70.83333333333333" as="geometry" />
        </mxCell>
        <mxCell id="ZQzBsFarwEVN76N8cBqX-59" style="edgeStyle=orthogonalEdgeStyle;rounded=0;orthogonalLoop=1;jettySize=auto;html=1;endArrow=none;endFill=1;strokeColor=#3399FF;strokeWidth=2;startFill=0;" edge="1" parent="1">
          <mxGeometry relative="1" as="geometry">
            <mxPoint x="769" y="384.52" as="sourcePoint" />
            <mxPoint x="790" y="384.52" as="targetPoint" />
          </mxGeometry>
        </mxCell>
        <mxCell id="ZQzBsFarwEVN76N8cBqX-60" value="" style="group" vertex="1" connectable="0" parent="1">
          <mxGeometry x="730" y="345" width="40" height="85" as="geometry" />
        </mxCell>
        <mxCell id="ZQzBsFarwEVN76N8cBqX-61" value="" style="rounded=0;whiteSpace=wrap;html=1;fillColor=#FFFFFF;strokeColor=#6c8ebf;" vertex="1" parent="ZQzBsFarwEVN76N8cBqX-60">
          <mxGeometry width="40" height="85" as="geometry" />
        </mxCell>
        <mxCell id="ZQzBsFarwEVN76N8cBqX-63" value="" style="rounded=0;whiteSpace=wrap;html=1;fillColor=#fff2cc;strokeColor=#d6b656;" vertex="1" parent="ZQzBsFarwEVN76N8cBqX-60">
          <mxGeometry x="24" y="7.083333333333333" width="8" height="70.83333333333333" as="geometry" />
        </mxCell>
        <mxCell id="ZQzBsFarwEVN76N8cBqX-64" value="" style="rounded=0;whiteSpace=wrap;html=1;fillColor=#dae8fc;strokeColor=#6c8ebf;" vertex="1" parent="ZQzBsFarwEVN76N8cBqX-60">
          <mxGeometry x="8" y="7.083333333333333" width="8" height="70.83333333333333" as="geometry" />
        </mxCell>
      </root>
    </mxGraphModel>
  </diagram>
</mxfile>
